<svg xmlns="http://www.w3.org/2000/svg" width="580" height="550" viewBox="0 0 580 550" role="img" aria-labelledby="case-timeline-title case-timeline-desc"><title id="case-timeline-title">Caso: 14:30 INCERFA y 14:50 DETRESFA</title><desc id="case-timeline-desc">Cronología ficticia: 14:00 reporte debido; 14:02 intento fallido; 14:30 INCERFA por 30 min desde 14:00; 14:50 noticia de falla catastrófica y fuego que justifica DETRESFA directa. ETA 14:45 no demuestra por sí sola autorización de aterrizaje.</desc><rect width="580" height="550" rx="18" fill="#081b31"/><g font-family="DejaVu Sans, sans-serif" fill="#f8f1df"><text x="24" y="38" font-size="26" fill="#e8be73" text-anchor="start" font-weight="600">CASO FICTICIO · UTC</text><rect x="24" y="75" width="532" height="80" rx="12" fill="#173149" stroke="#82c7e5" stroke-width="2"/><text x="42" y="123" font-size="30" fill="#f8f1df" text-anchor="start" font-weight="600">14:00</text><text x="176" y="107.0" font-size="23" fill="#f8f1df" text-anchor="start" font-weight="500">Reporte debido sin recepción</text><line x1="290" y1="158" x2="290" y2="174" stroke="#c7d3de" stroke-width="3" /><path d="M294.79425538604204 165.22417438109628 L290 174 L285.20574461395796 165.22417438109628" fill="none" stroke="#c7d3de" stroke-width="3"/><rect x="24" y="177" width="532" height="80" rx="12" fill="#173149" stroke="#82c7e5" stroke-width="2"/><text x="42" y="225" font-size="30" fill="#f8f1df" text-anchor="start" font-weight="600">14:02</text><text x="176" y="209.0" font-size="23" fill="#f8f1df" text-anchor="start" font-weight="500">Primer intento fallido</text><line x1="290" y1="260" x2="290" y2="276" stroke="#c7d3de" stroke-width="3" /><path d="M294.79425538604204 267.22417438109625 L290 276 L285.20574461395796 267.22417438109625" fill="none" stroke="#c7d3de" stroke-width="3"/><rect x="24" y="279" width="532" height="80" rx="12" fill="#173149" stroke="#e8be73" stroke-width="2"/><text x="42" y="327" font-size="30" fill="#f8f1df" text-anchor="start" font-weight="600">14:30</text><text x="176" y="311.0" font-size="23" fill="#f8f1df" text-anchor="start" font-weight="500">30 min desde el primero de los</text><text x="176" y="341.36" font-size="23" fill="#f8f1df" text-anchor="start" font-weight="500">dos</text><line x1="290" y1="362" x2="290" y2="378" stroke="#c7d3de" stroke-width="3" /><path d="M294.79425538604204 369.22417438109625 L290 378 L285.20574461395796 369.22417438109625" fill="none" stroke="#c7d3de" stroke-width="3"/><rect x="24" y="381" width="532" height="80" rx="12" fill="#173149" stroke="#edb2a6" stroke-width="2"/><text x="42" y="429" font-size="30" fill="#f8f1df" text-anchor="start" font-weight="600">14:50</text><text x="176" y="413.0" font-size="23" fill="#f8f1df" text-anchor="start" font-weight="500">Falla catastrófica + fuego</text><text x="24" y="504.0" font-size="20" fill="#c7d3de" text-anchor="start" font-weight="500">14:45 = ETA; el caso no informa autorización de</text><text x="24" y="530.4" font-size="20" fill="#c7d3de" text-anchor="start" font-weight="500">aterrizaje.</text></g></svg>